<svg xmlns="http://www.w3.org/2000/svg" viewBox="0 0 900 520" role="img" aria-label="Leuchtende WellFit Belohnungspunkte">
  <defs>
    <linearGradient id="bg" x1="0" y1="0" x2="1" y2="1"><stop stop-color="#041318"/><stop offset=".6" stop-color="#13352f"/><stop offset="1" stop-color="#4b351c"/></linearGradient>
    <radialGradient id="shine"><stop stop-color="#fff7bd"/><stop offset=".32" stop-color="#ffd65b"/><stop offset="1" stop-color="#ff8b1d"/></radialGradient>
    <filter id="glow"><feGaussianBlur stdDeviation="13" result="b"/><feMerge><feMergeNode in="b"/><feMergeNode in="SourceGraphic"/></feMerge></filter>
    <pattern id="topo" width="120" height="70" patternUnits="userSpaceOnUse"><path d="M-20 30C20 0 59 70 110 33S168 23 180 4" fill="none" stroke="#64e9e0" stroke-opacity=".07"/></pattern>
  </defs>
  <rect width="900" height="520" fill="url(#bg)"/>
  <rect width="390" height="520" fill="#020d12" opacity=".72"/>
  <rect width="420" height="520" fill="url(#topo)"/>
  <ellipse cx="678" cy="390" rx="210" ry="64" fill="#000" opacity=".32"/>
  <g transform="translate(482 156)" filter="url(#glow)">
    <g transform="translate(134 118)"><ellipse cx="0" cy="102" rx="98" ry="28" fill="#ff8b1d" opacity=".16"/><circle r="102" fill="#0f5c58" stroke="#ffd65b" stroke-width="18"/><circle r="78" fill="#073c3d" stroke="#fff0a3" stroke-opacity=".42" stroke-width="4"/><path d="M-46 5h24l20-51 31 94 24-58h39" fill="none" stroke="#ffe36b" stroke-width="18" stroke-linecap="round" stroke-linejoin="round"/></g>
    <g transform="translate(0 180) scale(.68)"><circle r="102" fill="#0f5c58" stroke="#ffd65b" stroke-width="18"/><path d="M-46 5h24l20-51 31 94 24-58h39" fill="none" stroke="#ffe36b" stroke-width="18" stroke-linecap="round" stroke-linejoin="round"/></g>
    <g transform="translate(260 205) scale(.54)"><circle r="102" fill="#0f5c58" stroke="#ffd65b" stroke-width="18"/><path d="M-46 5h24l20-51 31 94 24-58h39" fill="none" stroke="#ffe36b" stroke-width="18" stroke-linecap="round" stroke-linejoin="round"/></g>
  </g>
  <g fill="url(#shine)" opacity=".9"><circle cx="650" cy="74" r="5"/><circle cx="767" cy="135" r="4"/><circle cx="558" cy="104" r="3"/><circle cx="823" cy="254" r="5"/><circle cx="477" cy="280" r="4"/></g>
  <path d="M620 0c85 95 83 179 1 260" fill="none" stroke="#ffd65b" stroke-opacity=".18" stroke-width="36"/>
</svg>