<svg xmlns="http://www.w3.org/2000/svg" viewBox="0 0 1600 900" role="img" aria-labelledby="title desc">
  <title id="title">WellFit Abenteuerwelt</title>
  <desc id="desc">Eine dunkle türkisfarbene Abenteuerlandschaft mit Waldpfad, leuchtenden Wegpunkten und einer Stadt am Horizont.</desc>
  <defs>
    <linearGradient id="sky" x1="0" y1="0" x2="1" y2="1">
      <stop offset="0" stop-color="#031218"/>
      <stop offset=".46" stop-color="#07303a"/>
      <stop offset=".78" stop-color="#0b4a4d"/>
      <stop offset="1" stop-color="#1a352d"/>
    </linearGradient>
    <radialGradient id="sun" cx="72%" cy="36%" r="45%">
      <stop offset="0" stop-color="#ffd85b" stop-opacity=".58"/>
      <stop offset=".28" stop-color="#ff9f2f" stop-opacity=".22"/>
      <stop offset="1" stop-color="#ff7d16" stop-opacity="0"/>
    </radialGradient>
    <linearGradient id="mountain" x1="0" y1="0" x2="0" y2="1">
      <stop stop-color="#0b4a4d"/>
      <stop offset="1" stop-color="#03171d"/>
    </linearGradient>
    <linearGradient id="path" x1="0" y1="0" x2="1" y2="1">
      <stop stop-color="#163f3d"/>
      <stop offset=".55" stop-color="#8b6a37"/>
      <stop offset="1" stop-color="#ffd65d"/>
    </linearGradient>
    <radialGradient id="orb">
      <stop offset="0" stop-color="#eaffff"/>
      <stop offset=".2" stop-color="#5ff8f2"/>
      <stop offset=".55" stop-color="#00b9ba" stop-opacity=".72"/>
      <stop offset="1" stop-color="#00b9ba" stop-opacity="0"/>
    </radialGradient>
    <filter id="blur"><feGaussianBlur stdDeviation="24"/></filter>
    <filter id="glow"><feGaussianBlur stdDeviation="7" result="b"/><feMerge><feMergeNode in="b"/><feMergeNode in="SourceGraphic"/></feMerge></filter>
    <pattern id="topo" width="140" height="80" patternUnits="userSpaceOnUse">
      <path d="M-10 32C28 7 58 68 104 35S167 28 181 8" fill="none" stroke="#68e8df" stroke-opacity=".08" stroke-width="1.2"/>
      <path d="M-15 54C25 26 59 88 111 54S169 54 188 29" fill="none" stroke="#68e8df" stroke-opacity=".06" stroke-width="1"/>
    </pattern>
  </defs>
  <rect width="1600" height="900" fill="url(#sky)"/>
  <rect width="1600" height="900" fill="url(#sun)"/>
  <rect x="0" width="740" height="900" fill="#020d12" opacity=".72"/>
  <rect x="0" width="620" height="900" fill="url(#topo)"/>
  <ellipse cx="1180" cy="330" rx="360" ry="210" fill="#ffd94a" opacity=".08" filter="url(#blur)"/>
  <path d="M0 490L180 375l135 86 180-151 180 151 202-205 168 176 160-95 195 173 200-140v520H0Z" fill="#0b3a42" opacity=".72"/>
  <path d="M0 590L220 452l165 93 170-130 170 146 230-174 180 164 180-95 305 167v277H0Z" fill="url(#mountain)" opacity=".9"/>
  <g fill="#031318" opacity=".94">
    <path d="M0 500l44-156 35 123 39-185 42 193 36-116 39 145v396H0Z"/>
    <path d="M1600 448l-49-181-42 160-45-216-52 220-43-144-46 182v431h277Z"/>
  </g>
  <g fill="#ffd76a" opacity=".8" filter="url(#glow)">
    <rect x="1116" y="416" width="12" height="90" rx="5"/>
    <rect x="1141" y="372" width="15" height="134" rx="6"/>
    <rect x="1172" y="400" width="14" height="106" rx="6"/>
    <rect x="1201" y="338" width="17" height="168" rx="7"/>
    <rect x="1236" y="389" width="14" height="117" rx="6"/>
    <rect x="1266" y="355" width="15" height="151" rx="6"/>
  </g>
  <g fill="#07252b" stroke="#73eee8" stroke-opacity=".35">
    <path d="M1107 511h186l-12 70h-164Z"/>
    <path d="M1090 579h220l-26 55h-171Z"/>
  </g>
  <path d="M706 900C801 752 900 731 968 659c74-78 112-146 179-175 43-19 88-16 143-2-75 34-112 89-161 165-62 96-182 155-246 253Z" fill="url(#path)" opacity=".72"/>
  <path d="M722 900c90-126 181-151 251-221 70-69 109-127 176-157" fill="none" stroke="#ffe27b" stroke-opacity=".36" stroke-width="7" stroke-linecap="round"/>
  <g filter="url(#glow)">
    <circle cx="819" cy="785" r="37" fill="url(#orb)"/><circle cx="819" cy="785" r="7" fill="#dffffe"/>
    <circle cx="929" cy="690" r="31" fill="url(#orb)"/><circle cx="929" cy="690" r="6" fill="#dffffe"/>
    <circle cx="1024" cy="606" r="27" fill="url(#orb)"/><circle cx="1024" cy="606" r="5" fill="#dffffe"/>
    <circle cx="1099" cy="543" r="23" fill="url(#orb)"/><circle cx="1099" cy="543" r="5" fill="#dffffe"/>
  </g>
  <g fill="#dffefc" opacity=".7">
    <circle cx="667" cy="229" r="2"/><circle cx="790" cy="174" r="3"/><circle cx="916" cy="259" r="2"/><circle cx="1040" cy="166" r="2"/><circle cx="1322" cy="248" r="3"/><circle cx="1410" cy="337" r="2"/>
  </g>
  <ellipse cx="1250" cy="792" rx="265" ry="72" fill="#000" opacity=".38" filter="url(#blur)"/>
  <path d="M1040 848c76-85 116-112 188-122 82-12 178 15 251 122Z" fill="#07191b" stroke="#1b4b46" stroke-width="3"/>
</svg>